<svg
  width="9"
  height="9"
  viewBox="365 46.5 40 35"
  transform="rotate(135)"
  fill="none"
  xmlns="http://www.w3.org/2000/svg"
>
  <path
    fill-rule="evenodd"
    clip-rule="evenodd"
    d="M379.456 74.4039C386.893 74.4039 392.922 68.3749 392.922 60.9378C392.922 57.5319 391.657 54.4214 389.572 52.0499L381.353 63.8009C380.757 64.6528 379.613 64.9144 378.706 64.4061L375.597 62.663L370.09 70.4487L370.021 70.5461C372.451 72.9322 375.781 74.4039 379.456 74.4039ZM368.266 68.432L373.758 60.6672C374.356 59.8218 375.496 59.5644 376.399 60.0708L379.506 61.8123L387.613 50.2223C385.349 48.4965 382.522 47.4717 379.456 47.4717C372.019 47.4717 365.99 53.5007 365.99 60.9378C365.99 63.7117 366.828 66.2897 368.266 68.432Z"
    fill="url(#paint0_linear_1038_62514)"
  />
  <defs>
    <linearGradient
      id="paint0_linear_1038_62514"
      x1="367.193"
      y1="74.9775"
      x2="392.798"
      y2="47.4866"
      gradientUnits="userSpaceOnUse"
    >
      <stop stop-color="#004429" />
      <stop offset="0.145" stop-color="#00663D" />
      <stop offset="0.6" stop-color="#03AB68" />
      <stop offset="1" stop-color="#50C596" />
    </linearGradient>
  </defs>
</svg>
